<?xml version="1.0" standalone="no"?>
<!DOCTYPE svg PUBLIC "-//W3C//DTD SVG 20010904//EN"
 "http://www.w3.org/TR/2001/REC-SVG-20010904/DTD/svg10.dtd">
<svg version="1.0" xmlns="http://www.w3.org/2000/svg"
 width="100.000000pt" height="100.000000pt" viewBox="0 0 100.000000 100.000000"
 preserveAspectRatio="xMidYMid meet">
<metadata>
Created by potrace 1.14, written by Peter Selinger 2001-2017
</metadata>
<g transform="translate(0.000000,100.000000) scale(0.100000,-0.100000)"
fill="#000000" stroke="none">
<path d="M620 918 c-56 -30 -83 -77 -75 -130 4 -32 0 -44 -30 -84 -19 -25 -35
-52 -35 -60 0 -17 -25 -28 -117 -51 -52 -13 -69 -13 -87 -4 -20 11 -22 19 -18
59 3 37 0 53 -17 74 -42 53 -136 45 -166 -13 -43 -82 20 -160 115 -144 54 9
79 -8 53 -37 -13 -15 -19 -41 -22 -100 -3 -79 -3 -79 -40 -102 -20 -13 -48
-26 -62 -29 -49 -12 -74 -41 -74 -87 0 -32 6 -46 24 -59 19 -14 22 -24 17 -45
-3 -14 -2 -35 4 -47 10 -18 19 -19 98 -17 l87 3 -2 35 c-1 24 -9 41 -27 55
-19 15 -23 24 -16 35 5 8 10 25 10 37 0 16 8 23 31 28 50 11 97 60 115 121 8
29 20 56 25 59 12 8 119 -14 119 -24 0 -12 95 -51 124 -51 21 0 26 -5 26 -26
0 -14 -9 -38 -19 -53 -25 -35 -20 -89 10 -112 17 -12 20 -22 15 -43 -3 -14 -2
-35 4 -47 10 -18 19 -19 98 -17 86 3 87 3 90 29 2 19 -6 35 -27 56 -21 21 -27
34 -20 44 14 23 10 62 -10 93 -11 16 -18 34 -16 40 2 6 6 26 9 44 2 19 11 41
19 50 50 58 61 146 26 222 -22 49 -23 47 39 82 37 20 65 60 56 81 -3 9 -18 19
-32 22 -36 8 -56 24 -73 59 -22 45 -59 67 -125 73 -49 4 -66 1 -104 -19z m177
-49 c30 -29 29 -35 -12 -61 -19 -13 -35 -28 -35 -33 0 -6 20 -55 45 -110 49
-109 55 -153 29 -208 -33 -68 -154 -97 -234 -55 -58 30 -83 74 -84 147 0 62
19 108 66 158 28 29 29 33 18 67 -15 46 2 84 50 109 46 24 123 17 157 -14z
m96 -121 c-8 -9 -28 -21 -44 -27 -27 -9 -31 -8 -42 16 -10 22 -8 28 11 43 20
17 24 17 56 1 31 -14 33 -18 19 -33z m-691 -45 c22 -20 23 -61 1 -85 -37 -41
-111 -3 -98 50 12 50 61 68 97 35z m261 -152 c-2 -10 0 -36 6 -57 6 -21 9 -39
7 -41 -10 -11 -55 11 -59 29 -10 38 -32 11 -57 -71 -29 -92 -51 -122 -104
-138 -52 -16 -64 4 -26 41 27 25 30 35 31 89 1 79 4 97 22 115 16 15 167 63
179 56 3 -2 4 -12 1 -23z m307 -221 c0 -25 -4 -30 -25 -30 -46 0 -28 46 23 59
1 1 2 -12 2 -29z m-592 -86 c26 -18 28 -41 5 -66 -19 -21 -52 -23 -78 -4 -27
20 -29 52 -3 71 28 19 48 19 76 -1z m604 -1 c22 -20 23 -41 1 -65 -20 -22 -51
-23 -81 -2 -27 19 -28 38 -2 64 24 24 57 26 82 3z m-568 -139 c9 -8 16 -17 16
-20 0 -2 -24 -4 -54 -4 -49 0 -54 2 -49 20 7 25 64 28 87 4z m600 0 c9 -8 16
-17 16 -20 0 -2 -24 -4 -54 -4 -49 0 -54 2 -49 20 7 25 64 28 87 4z"/>
</g>
</svg>
